<svg width="589" height="57" viewBox="0 0 589 57" fill="none" xmlns="http://www.w3.org/2000/svg">
<path d="M23.64 44.768C34.84 44.768 40.536 37.984 43.032 32.288L31.896 27.168C30.808 30.496 27.48 33.376 23.64 33.376C17.432 33.376 13.272 28.64 13.272 22.688C13.272 16.736 17.432 12 23.64 12C27.48 12 30.808 14.88 31.896 18.208L43.032 13.024C40.472 7.136 34.84 0.607998 23.64 0.607998C10.264 0.607998 0.152 9.504 0.152 22.688C0.152 35.808 10.264 44.768 23.64 44.768ZM80.041 44L68.713 27.168L79.337 13.088H65.449L58.345 24.096V13.088H46.825V44H58.345V37.024L60.585 34.016L65.897 44H80.041ZM111.826 44V25.312C111.826 15.008 104.338 12.32 96.658 12.32C91.986 12.32 86.226 13.664 82.066 16.992L85.97 24.096C88.402 22.24 91.666 21.088 94.546 21.088C98.322 21.088 100.306 22.752 100.306 24.928V28.128C98.642 26.016 94.994 24.736 90.962 24.736C86.354 24.736 80.338 26.912 80.338 34.592C80.338 41.632 86.354 44.768 90.962 44.768C94.802 44.768 98.578 43.232 100.306 41.056V44H111.826ZM95.762 37.28C93.842 37.28 91.73 36.704 91.73 34.784C91.73 32.864 93.842 32.224 95.762 32.224C97.554 32.224 99.538 32.8 100.306 33.888V35.616C99.538 36.704 97.554 37.28 95.762 37.28ZM129.208 44L139.128 29.344V44H150.648V13.088H139L129.72 26.848V13.088H118.2V44H129.208ZM145.656 4.832L140.856 0.863998C139.32 3.04 137.144 4.256 134.456 4.256C131.64 4.256 129.464 2.848 128.056 0.863998L123.192 4.832C125.816 8.288 129.912 10.464 134.456 10.464C139.064 10.464 143.096 8.288 145.656 4.832ZM156.755 56.032C157.843 56.352 160.403 56.544 161.235 56.544C167.763 56.352 172.883 55.008 175.635 47.84L189.075 13.088H176.915L170.963 30.752L165.075 13.088H152.915L165.075 44.512L164.819 45.152C164.435 45.984 163.027 46.368 160.787 46.368C160.019 46.368 159.059 46.176 158.355 45.792L156.755 56.032ZM206.557 44.768C217.565 44.768 223.965 37.152 223.965 28.512C223.965 19.872 217.565 12.32 206.557 12.32C195.613 12.32 189.213 19.872 189.213 28.512C189.213 37.152 195.613 44.768 206.557 44.768ZM206.557 34.592C203.037 34.592 201.053 31.968 201.053 28.512C201.053 25.12 203.037 22.496 206.557 22.496C210.141 22.496 212.125 25.12 212.125 28.512C212.125 31.968 210.141 34.592 206.557 34.592ZM261.479 44L250.151 27.168L260.775 13.088H246.887L239.783 24.096V13.088H228.263V44H239.783V37.024L242.023 34.016L247.335 44H261.479ZM278.367 44.768C282.975 44.768 288.479 43.552 291.551 40.928L286.815 33.824C285.279 35.168 281.439 36 279.711 36C275.935 36 273.695 34.08 273.055 32.096H294.047V29.728C294.047 18.848 287.071 12.32 277.983 12.32C267.999 12.32 261.151 19.552 261.151 28.512C261.151 38.688 268.703 44.768 278.367 44.768ZM283.103 24.8H272.927C273.311 23.392 274.463 21.088 277.983 21.088C281.695 21.088 282.783 23.456 283.103 24.8ZM318.237 44.768C325.917 44.768 331.805 39.136 331.805 28.512C331.805 17.952 325.917 12.32 318.237 12.32C315.037 12.32 312.029 13.408 309.533 16.352V13.088H298.013V55.776H309.533V40.736C312.093 43.68 315.037 44.768 318.237 44.768ZM314.269 34.592C312.797 34.592 310.557 33.76 309.533 32.48V24.608C310.621 23.264 312.797 22.496 314.269 22.496C317.341 22.496 320.029 24.672 320.029 28.512C320.029 32.416 317.341 34.592 314.269 34.592ZM341.899 44.768C345.611 44.768 348.747 41.632 348.747 37.92C348.747 34.208 345.611 31.072 341.899 31.072C338.187 31.072 335.051 34.208 335.051 37.92C335.051 41.632 338.187 44.768 341.899 44.768ZM397.585 44C406.161 44 410.193 38.368 410.193 32.416C410.193 26.912 406.673 22.688 402.065 21.984C406.225 21.088 409.361 17.504 409.361 12.192C409.361 7.2 405.521 1.312 396.689 1.312H370.769V44H397.585ZM393.681 17.056H383.697V12.064H393.681C395.025 12.064 396.241 13.024 396.241 14.496C396.241 16.032 395.025 17.056 393.681 17.056ZM394.065 33.248H383.697V27.808H394.065C395.921 27.808 397.073 29.024 397.073 30.56C397.073 32.16 395.921 33.248 394.065 33.248ZM430.37 44.768C441.378 44.768 447.778 37.152 447.778 28.512C447.778 19.872 441.378 12.32 430.37 12.32C419.426 12.32 413.026 19.872 413.026 28.512C413.026 37.152 419.426 44.768 430.37 44.768ZM430.37 34.592C426.85 34.592 424.866 31.968 424.866 28.512C424.866 25.12 426.85 22.496 430.37 22.496C433.954 22.496 435.938 25.12 435.938 28.512C435.938 31.968 433.954 34.592 430.37 34.592ZM467.307 44.768C474.347 44.768 478.699 41.504 480.427 38.944L473.003 31.904C472.043 33.312 470.251 34.592 467.819 34.592C464.555 34.592 461.739 32.48 461.739 28.512C461.739 24.544 464.555 22.496 467.819 22.496C470.251 22.496 472.043 23.648 473.003 25.12L480.427 18.144C478.699 15.52 474.347 12.32 467.307 12.32C457.515 12.32 449.963 18.72 449.963 28.512C449.963 38.368 457.515 44.768 467.307 44.768ZM515.112 44L504.936 28.128L514.408 13.088H501.8L497.64 20.32L493.48 13.088H480.872L490.344 28.128L480.232 44H492.776L497.704 35.808L502.504 44H515.112ZM530.87 44.768C541.878 44.768 548.278 37.152 548.278 28.512C548.278 19.872 541.878 12.32 530.87 12.32C519.926 12.32 513.526 19.872 513.526 28.512C513.526 37.152 519.926 44.768 530.87 44.768ZM530.87 34.592C527.35 34.592 525.366 31.968 525.366 28.512C525.366 25.12 527.35 22.496 530.87 22.496C534.454 22.496 536.438 25.12 536.438 28.512C536.438 31.968 534.454 34.592 530.87 34.592ZM550.527 51.872H562.047V44H576.895V51.872H588.415V34.016H585.023V13.088H557.247L555.071 27.872C554.239 33.824 552.639 34.4 550.527 34.4V51.872ZM567.103 23.072H573.503V34.016H563.967C565.247 32.48 566.015 30.432 566.399 27.872L567.103 23.072Z" fill="white"/>
</svg>
